<?xml version="1.0" encoding="utf-8"?>
<!-- Generator: Adobe Illustrator 19.0.0, SVG Export Plug-In . SVG Version: 6.00 Build 0)  -->
<svg version="1.1" id="Capa_1" xmlns="http://www.w3.org/2000/svg" xmlns:xlink="http://www.w3.org/1999/xlink" x="0px" y="0px"
	 viewBox="0 0 240 79.2" style="enable-background:new 0 0 240 79.2;" xml:space="preserve">
<style type="text/css">
	.st0{fill:#DF097E;}
	.st1{fill:#055099;}
</style>
<g id="XMLID_2720_">
	<g id="XMLID_9335_">
		<g id="XMLID_11869_">
			<path id="XMLID_11872_" class="st0" d="M44,38.1c2-3.1,2.2-6.3,1.8-9.7C44.4,17.6,30.7,10.7,6.4,13.8c-3.6,0.5-4.3,0.6-6.4,1.1
				L8.7,1.6c2-0.5,4.1-0.9,6.3-1.1C33.9-1.8,51.5,4.7,54.4,15c0.9,3.4,0.3,6.8-1.7,9.8L44,38.1z"/>
		</g>
		<g id="XMLID_11843_">
			<path id="XMLID_11844_" class="st0" d="M45.2,31c0.1,2.4-0.6,5-2.1,7.2c-2.8,4.2-8.5,8.1-14.2,8.9l8.6-13.3
				C39.6,33.9,43.5,32.2,45.2,31z"/>
		</g>
		<g id="XMLID_11841_">
			<path id="XMLID_11842_" class="st1" d="M9.1,37.2C13,49.4,26.7,55.6,48.5,51.8c2.2-0.4,5.2-1.5,7.1-2.5L46.2,64
				c-2,0.5-4.1,0.9-6.3,1.1C21,67.4,3.4,60.9,0.5,50.6c-0.8-2.8-0.6-5.5,0.8-8.1C3.1,39.9,6,37,8.9,35.5C8.8,36,8.9,36.6,9.1,37.2z"
				/>
		</g>
		<g id="XMLID_11839_">
			<path id="XMLID_11840_" class="st1" d="M2.2,40.5c3.9-5.8,8-12,8.7-13c2.8-4.2,7.4-7.6,13.9-8.7l-8.6,13.3
				C10.2,32.8,6.2,36,2.2,40.5z"/>
		</g>
		<g id="XMLID_11837_">
			<path id="XMLID_11838_" class="st0" d="M65.9,48.5L71,24.6c0.7-2.5,2.2-4.7,4.3-6.5c2.4-2,5.1-3,8.1-3c2.6,0,4.8,0.6,6.5,1.8
				c1.7,1.2,2.5,3,2.5,5.3c0,0.5,0,0.8-0.1,1.1c-0.1,0.3-0.1,0.5-0.1,0.7c-0.5,1.9-1.1,3.4-1.9,4.5c-0.6,0.7-1.5,1.5-2.8,2.4
				c1.1,0.7,1.9,1.5,2.5,2.5c0.5,1,0.8,2.1,0.8,3.2c0,0.3,0,0.6,0,1c-0.1,0.4-0.1,0.7-0.1,0.9c-0.5,3-1.9,5.4-4.2,7.2
				c-2.3,1.8-4.9,2.7-7.8,2.7H72l0.9-4.1h6.3c1.6,0,3-0.4,4.2-1.2c1.4-1,2.3-2.3,2.6-4.2c0.1-0.5,0.1-1,0.1-1.4
				c0-1.4-0.5-2.4-1.5-3.1c-1-0.6-2.2-0.9-3.7-0.9h-5.8l0.8-4.1h5.2c2,0,3.6-0.6,4.8-1.8c0.9-0.9,1.5-2.1,1.7-3.4
				c0.1-0.5,0.1-0.8,0.1-1c0-1.3-0.5-2.3-1.4-3c-1-0.7-2.2-1-3.8-1c-1.9,0-3.6,0.6-4.9,1.8c-1.2,1.1-2,2.4-2.5,4.1l-5,23.3H65.9z"/>
		</g>
		<g id="XMLID_11835_">
			<path id="XMLID_11836_" class="st0" d="M108.4,48.5l2.8-13c0.1-0.4,0.1-0.8,0.1-1c0-1.5-0.5-2.7-1.6-3.7
				c-1.1-0.9-2.7-1.4-4.7-1.4c-1.7,0-3.4,0.5-4.9,1.5c-2.1,1.4-3.4,3.4-4,6c-0.2,0.8-0.2,1.4-0.2,2c0,1.8,0.6,3.3,1.7,4.4
				c1.1,1,2.5,1.6,4.2,1.6c2.2,0,4.3-1,6.4-3.1l-1.1,4.9c-1.3,0.7-2.2,1.2-2.8,1.4c-1.1,0.4-2.4,0.7-3.8,0.7c-2.5,0-4.6-0.8-6.3-2.4
				c-1.8-1.7-2.7-3.9-2.7-6.7c0-0.6,0-1,0-1.3c0-0.3,0.1-0.8,0.3-1.5c0.7-3.3,2.3-6,4.7-8.1c2.6-2.3,5.8-3.4,9.6-3.4
				c3,0,5.4,0.8,7,2.3c1.5,1.4,2.3,3.3,2.3,5.6c0,0.9-0.1,1.6-0.2,2.3l-2.7,12.6L108.4,48.5z"/>
		</g>
		<g id="XMLID_11833_">
			<path id="XMLID_11834_" class="st0" d="M115.4,48.5l2.9-13.7c0.5-2.6,2-4.8,4.2-6.6c2.2-1.8,4.7-2.7,7.5-2.7c1.9,0,3.5,0.5,5,1.6
				c1.9,1.4,2.8,3.3,2.8,5.8c0,0.3,0,0.7,0,1.1c0,0.4-0.1,0.8-0.2,1.2l-2.9,13.3h-4.2l2.8-13.2c0.1-0.5,0.1-0.9,0.1-1.3
				c0-1.3-0.4-2.4-1.2-3.2c-0.8-0.9-1.8-1.3-3.2-1.3c-1.5,0-3,0.5-4.2,1.6c-1.3,1.1-2.1,2.4-2.4,3.9l-2.9,13.6H115.4z"/>
		</g>
		<g id="XMLID_11831_">
			<path id="XMLID_11832_" class="st0" d="M140.1,37.3c0.8-3.1,2.3-5.7,4.6-7.8c2.5-2.3,5.5-3.5,9-3.5h4.1L157,30h-3.6
				c-1.7,0-3.4,0.5-5,1.6c-2.1,1.4-3.4,3.4-3.9,5.8c-0.1,0.4-0.1,0.9-0.1,1.3c0,1.6,0.5,2.9,1.4,3.9c1.1,1.2,2.7,1.9,4.7,1.9h3.4
				l-0.9,3.9h-4.1c-3,0-5.3-1-6.9-2.9c-1.4-1.7-2.1-3.7-2.1-6.1C139.9,38.8,139.9,38.1,140.1,37.3z"/>
		</g>
		<g id="XMLID_11827_">
			<path id="XMLID_11828_" class="st0" d="M160.9,36.9c-0.2,0.7-0.3,1.5-0.3,2.3c0,1.7,0.4,3,1.3,4c1,1.2,2.6,1.8,4.8,1.8
				c2.2,0,4.1-0.6,5.6-1.9c1.7-1.4,2.9-3.6,3.4-6.4c0.1-0.5,0.1-1,0.1-1.5c0-1.7-0.5-3.1-1.6-4.1c-1.1-1-2.6-1.5-4.4-1.5
				c-2.4,0-4.5,0.8-6.2,2.4C162.3,33.3,161.4,34.9,160.9,36.9z M156.6,37c0.8-3.2,2.6-6,5.5-8.2c2.7-2.1,5.6-3.2,8.6-3.2
				c2.6,0,4.9,0.8,6.7,2.3c2,1.6,3,3.9,3,6.7c0,0.8-0.1,1.7-0.3,2.6c-0.6,2.9-2.1,5.5-4.4,7.8c-2.7,2.7-5.7,4-9.2,4
				c-3.2,0-5.7-0.9-7.6-2.7c-1.8-1.7-2.8-4-2.8-6.8c0-0.7,0.1-1.5,0.2-2.3L156.6,37z"/>
		</g>
		<g id="XMLID_11631_">
			<path id="XMLID_11632_" class="st1" d="M184.7,48.5l4.8-22.5c1-3.7,2.8-6.3,5.3-8.1c2.1-1.5,4.7-2.2,7.8-2.2h4.7l-0.9,4.1h-4.7
				c-2.1,0-3.8,0.5-5.1,1.6c-1.3,1-2.2,2.5-2.7,4.5l-0.9,4.2h11.3l-0.9,4.1h-11.3l-3.1,14.2H184.7z"/>
		</g>
		<g id="XMLID_11627_">
			<path id="XMLID_11628_" class="st1" d="M205.1,48.5l4.8-22.4h4.1l-4.8,22.4H205.1z M210.6,20.9c0.2-0.7,0.6-1.2,1.2-1.7
				c0.6-0.5,1.1-0.7,1.8-0.7c0.6,0,1.1,0.2,1.5,0.5c0.3,0.4,0.5,0.8,0.5,1.4c0,0.2,0,0.4,0,0.5c-0.2,0.7-0.5,1.3-1,1.8
				c-0.6,0.5-1.2,0.7-1.8,0.7c-0.6,0-1.1-0.2-1.5-0.5c-0.4-0.3-0.6-0.8-0.6-1.4C210.5,21.4,210.5,21.2,210.6,20.9z"/>
		</g>
		<g id="XMLID_9336_">
			<path id="XMLID_11573_" class="st1" d="M221.9,37.8l12.6-6.2c-0.7-0.8-1.4-1.4-2-1.7c-0.7-0.3-1.6-0.4-2.8-0.4
				c-2.3,0-4.2,0.8-5.9,2.4c-1.7,1.6-2.8,3.5-3.1,5.7c0,0.3,0,0.6,0,0.8c0,0.3,0,0.4,0,0.6c0,1.7,0.5,3.1,1.4,4.2
				c1.1,1.2,2.6,1.8,4.6,1.8c2.2,0,4.1-0.6,5.6-1.9c1.3-1.1,2.5-2.8,3.4-5.2l4,0.6c-0.6,2.4-2,4.7-4.4,6.7c-2.9,2.5-6.1,3.7-9.8,3.7
				c-2.7,0-4.9-0.9-6.6-2.6c-1.8-1.7-2.7-3.9-2.7-6.5c0-0.4,0-0.8,0-1c0-0.2,0.1-0.6,0.2-1.2c0.7-3.9,2.6-7,5.7-9.3
				c2.7-2,5.5-2.9,8.4-2.9c2.6,0,4.6,0.6,6.1,1.7c1.5,1.2,2.6,3,3.4,5.4l-17,8.4L221.9,37.8z"/>
		</g>
	</g>
	<g id="XMLID_4752_">
		<path id="XMLID_7905_" class="st0" d="M154.7,64.7c-0.4,0-0.7-0.1-1-0.4c-0.3-0.3-0.4-0.6-0.4-1c0-0.4,0.1-0.7,0.4-1
			c0.3-0.3,0.6-0.4,1-0.4c0.4,0,0.7,0.1,1,0.4c0.3,0.3,0.4,0.6,0.4,1c0,0.4-0.1,0.7-0.4,1C155.4,64.5,155,64.7,154.7,64.7z
			 M153.5,79.1h-1.6l1.7-12.7h1.6L153.5,79.1z"/>
		<path id="XMLID_7879_" class="st0" d="M153.5,79.2h-1.7l1.8-12.9h1.7L153.5,79.2z M152,79h1.4l1.7-12.6h-1.4L152,79z M154.7,64.8
			c-0.4,0-0.7-0.1-1-0.4c-0.3-0.3-0.4-0.6-0.4-1c0-0.4,0.1-0.7,0.4-1c0.3-0.3,0.6-0.4,1-0.4c0.4,0,0.7,0.1,1,0.4
			c0.3,0.3,0.4,0.6,0.4,1c0,0.4-0.1,0.7-0.4,1C155.4,64.6,155.1,64.8,154.7,64.8z M154.7,62c-0.4,0-0.6,0.1-0.9,0.4
			c-0.3,0.2-0.4,0.6-0.4,0.9c0,0.3,0.1,0.6,0.4,0.9c0.3,0.3,0.5,0.4,0.9,0.4c0.4,0,0.7-0.1,0.9-0.4c0.3-0.2,0.4-0.5,0.4-0.9
			c0-0.4-0.1-0.7-0.4-0.9C155.3,62.2,155,62,154.7,62z"/>
	</g>
	<g id="XMLID_3186_">
		<path id="XMLID_3219_" class="st0" d="M170.3,67.2c0-1.1-0.4-2.1-1.2-2.8c-0.7-0.7-1.7-1.1-2.8-1.1c-1.2,0-2.3,0.3-3.2,1
			c-0.9,0.7-1.6,1.6-2,2.8H170.3z M171.8,68.6h-10.9c0,1.4,0.4,2.6,1.1,3.4c0.8,0.8,1.8,1.2,3.1,1.2c0.9,0,1.7-0.2,2.4-0.5
			c0.7-0.3,1.3-0.8,1.8-1.5l1.2,0.9c-0.6,0.8-1.4,1.4-2.3,1.8c-1,0.4-2,0.7-3.1,0.7c-1.9,0-3.4-0.6-4.3-1.8c-1-1.2-1.4-2.5-1.4-4
			c0-1.2,0.3-2.4,1-3.5c0.6-1.1,1.5-2,2.6-2.6c1.1-0.6,2.3-0.9,3.5-0.9c1.6,0,2.9,0.5,3.9,1.6c1,1.1,1.5,2.4,1.5,4
			C171.9,67.8,171.8,68.2,171.8,68.6z"/>
		<path id="XMLID_3187_" class="st0" d="M165.1,74.8c-1.9,0-3.4-0.6-4.4-1.8c-1-1.2-1.5-2.5-1.5-4c0-1.2,0.3-2.4,1-3.5
			c0.7-1.1,1.5-2,2.6-2.6c1.1-0.6,2.3-0.9,3.6-0.9c1.6,0,2.9,0.5,3.9,1.6c1,1.1,1.6,2.4,1.6,4.1c0,0.3,0,0.7-0.1,1.1l0,0.1H161
			c0,1.4,0.4,2.5,1.1,3.3c0.8,0.8,1.8,1.2,3,1.2c0.8,0,1.6-0.2,2.4-0.5c0.7-0.3,1.3-0.8,1.8-1.4l0.1-0.1l1.3,1.1l-0.1,0.1
			c-0.6,0.8-1.4,1.4-2.4,1.8C167.3,74.5,166.2,74.8,165.1,74.8z M166.4,62c-1.2,0-2.4,0.3-3.5,0.9c-1.1,0.6-1.9,1.5-2.6,2.6
			c-0.6,1.1-1,2.3-1,3.4c0,1.4,0.5,2.8,1.4,3.9c0.9,1.2,2.4,1.7,4.3,1.7c1.1,0,2.1-0.2,3.1-0.7c0.9-0.4,1.7-1,2.2-1.7l-1-0.8
			c-0.5,0.6-1.1,1.1-1.8,1.4c-0.7,0.4-1.6,0.5-2.4,0.5c-1.3,0-2.4-0.4-3.2-1.3c-0.8-0.8-1.2-2-1.2-3.5l0-0.1h10.9
			c0-0.4,0.1-0.7,0.1-1c0-1.6-0.5-2.9-1.5-4C169.2,62.5,168,62,166.4,62z M170.4,67.3H161l0-0.1c0.4-1.2,1.1-2.2,2-2.9
			c0.9-0.7,2-1,3.3-1c1.1,0,2.1,0.4,2.9,1.1C170,65.1,170.4,66.1,170.4,67.3L170.4,67.3z M161.3,67.1h9c-0.1-1.1-0.4-2-1.1-2.6
			c-0.7-0.7-1.6-1-2.7-1c-1.2,0-2.3,0.3-3.2,1C162.3,65.1,161.7,66,161.3,67.1z"/>
	</g>
	<g id="XMLID_3181_">
		<path id="XMLID_3185_" class="st0" d="M175.1,62.2h1.6l-0.2,1.5c0.4-0.6,0.9-1,1.5-1.4c0.6-0.3,1.2-0.5,1.8-0.5
			c0.4,0,0.9,0.1,1.4,0.3l-0.7,1.4c-0.4-0.2-0.7-0.2-1-0.2c-0.5,0-1.1,0.2-1.6,0.6c-0.5,0.4-1,0.9-1.3,1.7c-0.3,0.7-0.6,1.9-0.8,3.6
			l-0.7,5.1h-1.5L175.1,62.2z"/>
		<path id="XMLID_3182_" class="st0" d="M175.1,74.4h-1.7l0-0.1l1.7-12.2h1.7l-0.2,1.3c0.4-0.5,0.8-0.8,1.3-1.1
			c0.6-0.3,1.2-0.5,1.9-0.5c0.4,0,0.9,0.1,1.4,0.3l0.1,0l-0.8,1.6l-0.1,0c-0.4-0.2-0.7-0.2-0.9-0.2c-0.5,0-1.1,0.2-1.6,0.6
			c-0.5,0.4-0.9,0.9-1.3,1.6c-0.3,0.7-0.6,1.9-0.8,3.6L175.1,74.4z M173.6,74.3h1.4l0.7-5.1c0.2-1.7,0.5-2.9,0.9-3.6
			c0.3-0.7,0.8-1.3,1.3-1.7c0.5-0.4,1.1-0.6,1.7-0.6c0.3,0,0.6,0.1,0.9,0.2l0.7-1.3c-0.4-0.2-0.9-0.3-1.3-0.3
			c-0.6,0-1.2,0.2-1.8,0.5s-1.1,0.8-1.5,1.3l-0.2-0.1l0.2-1.4h-1.4L173.6,74.3z"/>
	</g>
	<g id="XMLID_2777_">
		<path id="XMLID_3176_" class="st0" d="M192.2,67.2c0-1.1-0.4-2.1-1.2-2.8c-0.7-0.7-1.7-1.1-2.8-1.1c-1.2,0-2.3,0.3-3.2,1
			c-0.9,0.7-1.6,1.6-2,2.8H192.2z M193.6,68.6h-10.9c0,1.4,0.4,2.6,1.1,3.4c0.8,0.8,1.8,1.2,3.1,1.2c0.9,0,1.7-0.2,2.4-0.5
			c0.7-0.3,1.3-0.8,1.8-1.5l1.2,0.9c-0.6,0.8-1.4,1.4-2.3,1.8c-1,0.4-2,0.7-3.1,0.7c-1.9,0-3.4-0.6-4.3-1.8c-1-1.2-1.4-2.5-1.4-4
			c0-1.2,0.3-2.4,1-3.5c0.6-1.1,1.5-2,2.6-2.6c1.1-0.6,2.3-0.9,3.5-0.9c1.6,0,2.9,0.5,3.9,1.6c1,1.1,1.5,2.4,1.5,4
			C193.7,67.8,193.7,68.2,193.6,68.6z"/>
		<path id="XMLID_2778_" class="st0" d="M187,74.8c-1.9,0-3.4-0.6-4.4-1.8c-1-1.2-1.5-2.5-1.5-4c0-1.2,0.3-2.4,1-3.5
			c0.6-1.1,1.5-2,2.6-2.6c1.1-0.6,2.3-0.9,3.6-0.9c1.6,0,2.9,0.5,3.9,1.6c1,1.1,1.6,2.4,1.6,4.1c0,0.3,0,0.7-0.1,1.1l0,0.1h-10.9
			c0,1.4,0.4,2.5,1.1,3.3c0.8,0.8,1.8,1.2,3,1.2c0.8,0,1.6-0.2,2.4-0.5c0.7-0.3,1.3-0.8,1.8-1.4l0.1-0.1l1.3,1.1l-0.1,0.1
			c-0.6,0.8-1.4,1.4-2.4,1.8C189.1,74.5,188.1,74.8,187,74.8z M188.3,62c-1.2,0-2.4,0.3-3.5,0.9c-1.1,0.6-1.9,1.5-2.6,2.6
			c-0.6,1.1-1,2.3-1,3.4c0,1.4,0.5,2.8,1.4,3.9c0.9,1.2,2.4,1.7,4.3,1.7c1.1,0,2.1-0.2,3.1-0.7c0.9-0.4,1.7-1,2.2-1.7l-1-0.8
			c-0.5,0.6-1.1,1.1-1.8,1.4c-0.7,0.4-1.6,0.5-2.4,0.5c-1.3,0-2.4-0.4-3.2-1.3c-0.8-0.8-1.2-2-1.2-3.5l0-0.1h10.9
			c0-0.4,0.1-0.7,0.1-1c0-1.6-0.5-2.9-1.5-4C191.1,62.5,189.8,62,188.3,62z M192.3,67.3h-9.4l0-0.1c0.4-1.2,1.1-2.2,2-2.9
			c0.9-0.7,2-1,3.3-1c1.1,0,2.1,0.4,2.9,1.1C191.8,65.1,192.2,66.1,192.3,67.3L192.3,67.3z M183.1,67.1h9c-0.1-1.1-0.4-2-1.1-2.6
			c-0.7-0.7-1.6-1-2.7-1c-1.2,0-2.3,0.3-3.2,1C184.2,65.1,183.5,66,183.1,67.1z"/>
	</g>
	<g id="XMLID_2771_">
		<path id="XMLID_2776_" class="st0" d="M203.3,63.6l-0.9,1.3c-0.7-1-1.5-1.5-2.5-1.5c-0.5,0-1,0.2-1.4,0.5
			c-0.4,0.4-0.6,0.7-0.6,1.2c0,0.3,0.1,0.6,0.3,0.9c0.2,0.3,0.7,0.7,1.5,1.2c1.2,0.8,1.9,1.4,2.3,2c0.4,0.6,0.5,1.2,0.5,2
			c0,1-0.4,1.9-1.1,2.5c-0.7,0.7-1.6,1-2.8,1c-1.5,0-2.8-0.7-3.8-2l1-1.1c0.9,1.1,1.9,1.6,3,1.6c0.6,0,1.1-0.2,1.6-0.6
			c0.4-0.4,0.7-0.9,0.7-1.5c0-0.5-0.2-0.9-0.5-1.3c-0.2-0.3-0.8-0.7-1.8-1.4c-1-0.7-1.7-1.3-2-1.7c-0.3-0.5-0.5-1-0.5-1.5
			c0-0.9,0.3-1.7,1-2.3c0.7-0.6,1.5-0.9,2.6-0.9c0.6,0,1.2,0.1,1.7,0.4C202.3,62.5,202.8,62.9,203.3,63.6z"/>
		<path id="XMLID_2772_" class="st0" d="M198.9,74.8c-1.5,0-2.8-0.7-3.9-2l0-0.1l1.1-1.2l0.1,0.1c0.9,1.1,1.9,1.6,2.9,1.6
			c0.6,0,1.1-0.2,1.5-0.6c0.4-0.4,0.6-0.9,0.6-1.4c0-0.4-0.2-0.9-0.5-1.3c-0.2-0.3-0.8-0.7-1.7-1.3c-1-0.7-1.7-1.3-2-1.8
			c-0.3-0.5-0.5-1-0.5-1.6c0-0.9,0.4-1.7,1.1-2.4c0.7-0.6,1.6-1,2.6-1c0.6,0,1.2,0.1,1.7,0.4c0.5,0.2,1,0.7,1.5,1.3l0,0.1l-1,1.4
			l-0.1-0.1c-0.7-0.9-1.5-1.4-2.4-1.4c-0.5,0-1,0.2-1.3,0.5c-0.4,0.3-0.5,0.7-0.5,1.1c0,0.3,0.1,0.6,0.3,0.9
			c0.2,0.3,0.7,0.7,1.5,1.2c1.2,0.8,2,1.4,2.3,2c0.4,0.6,0.6,1.3,0.6,2c0,1-0.4,1.9-1.1,2.6C201,74.4,200.1,74.8,198.9,74.8z
			 M195.2,72.7c1,1.3,2.2,1.9,3.7,1.9c1.1,0,2-0.3,2.7-1c0.7-0.6,1-1.5,1-2.5c0-0.7-0.2-1.4-0.5-1.9c-0.4-0.5-1.1-1.2-2.3-1.9
			c-0.8-0.5-1.3-0.9-1.6-1.2c-0.2-0.3-0.4-0.6-0.4-1c0-0.4,0.2-0.9,0.6-1.2c0.4-0.4,0.9-0.5,1.4-0.5c0.9,0,1.8,0.5,2.4,1.4l0.7-1.1
			c-0.5-0.6-1-1-1.4-1.2c-0.5-0.2-1-0.4-1.6-0.4c-1,0-1.9,0.3-2.5,0.9c-0.7,0.6-1,1.4-1,2.2c0,0.5,0.2,1.1,0.5,1.5
			c0.3,0.4,1,1,2,1.7c0.9,0.6,1.5,1.1,1.8,1.4c0.3,0.4,0.5,0.9,0.5,1.4c0,0.6-0.2,1.1-0.7,1.5c-0.5,0.4-1,0.7-1.6,0.7
			c-1.1,0-2.1-0.5-3-1.6L195.2,72.7z"/>
	</g>
	<g id="XMLID_2765_">
		<polygon id="XMLID_2770_" class="st0" points="214.8,57.7 216.4,57.7 215.8,62.2 218.2,62.2 218.1,63.6 215.6,63.6 214.1,74.4 
			212.6,74.4 214,63.6 211.9,63.6 212.1,62.2 214.2,62.2 		"/>
		<path id="XMLID_2766_" class="st0" d="M214.2,74.4h-1.7l0-0.1l1.5-10.7h-2.1l0.2-1.5h2.1l0.6-4.5h1.7l-0.6,4.5h2.5l-0.2,1.5h-2.5
			L214.2,74.4z M212.7,74.3h1.4l1.4-10.8h2.5l0.2-1.2h-2.5l0.6-4.5h-1.4l-0.6,4.5h-2.1l-0.2,1.2h2.1l0,0.1L212.7,74.3z"/>
	</g>
	<g id="XMLID_2731_">
		<path id="XMLID_2762_" class="st0" d="M227.8,56.5h2.4l-3.8,3.4h-1.5L227.8,56.5z M221.4,62.2h1.6l-0.7,5.1
			c-0.2,1.5-0.3,2.4-0.3,2.8c0,0.9,0.3,1.6,0.9,2.2c0.6,0.6,1.3,0.9,2.3,0.9c0.8,0,1.5-0.2,2-0.7c0.6-0.4,1-1,1.2-1.8
			c0.1-0.4,0.3-1.2,0.4-2.5l0.8-6.1h1.5l-0.6,4.6c-0.3,2.2-0.6,3.8-0.9,4.7c-0.3,0.9-0.9,1.7-1.7,2.3c-0.8,0.6-1.8,0.9-3,0.9
			c-1.3,0-2.4-0.4-3.3-1.3c-0.8-0.9-1.3-1.9-1.3-3.2c0-0.5,0-1.1,0.1-1.8l0.1-1.1l0.1-0.5L221.4,62.2z"/>
		<path id="XMLID_2732_" class="st0" d="M225,74.8c-1.3,0-2.5-0.4-3.3-1.3c-0.9-0.9-1.3-2-1.3-3.3c0-0.5,0-1.1,0.1-1.8l0.1-1.1
			l0.1-0.5l0.7-4.7h1.7l-0.8,5.2c-0.2,1.5-0.3,2.4-0.3,2.8c0,0.9,0.3,1.6,0.8,2.2c0.6,0.6,1.3,0.8,2.2,0.8c0.8,0,1.4-0.2,2-0.7
			c0.6-0.4,1-1,1.2-1.7c0.1-0.4,0.3-1.2,0.4-2.5l0.8-6.2h1.7l-0.6,4.7c-0.3,2.2-0.6,3.8-0.9,4.7c-0.3,0.9-0.9,1.7-1.7,2.3
			C227.2,74.4,226.2,74.8,225,74.8z M221.5,62.3l-0.7,5l-0.1,1.1c-0.1,0.7-0.1,1.3-0.1,1.8c0,1.3,0.4,2.3,1.2,3.2
			c0.8,0.8,1.9,1.3,3.2,1.3c1.1,0,2.1-0.3,2.9-0.9c0.8-0.6,1.4-1.3,1.7-2.2c0.3-0.9,0.6-2.5,0.9-4.7l0.6-4.5h-1.4l-0.8,6
			c-0.2,1.3-0.3,2.2-0.4,2.5c-0.3,0.7-0.7,1.3-1.3,1.8c-0.6,0.5-1.3,0.7-2.1,0.7c-1,0-1.7-0.3-2.3-0.9c-0.6-0.6-0.9-1.4-0.9-2.3
			c0-0.4,0.1-1.3,0.3-2.9l0.7-5H221.5z M226.5,60h-1.8l3.1-3.6h2.7L226.5,60z M225.1,59.9h1.3l3.6-3.3h-2.2L225.1,59.9z"/>
	</g>
	<g id="XMLID_2721_">
		<path id="XMLID_2728_" class="st0" d="M236.2,57.5h1.6L236,70.3h-1.6L236.2,57.5z M234.9,71.9c0.4,0,0.7,0.1,1,0.4
			c0.3,0.3,0.4,0.6,0.4,1c0,0.4-0.1,0.7-0.4,1c-0.3,0.3-0.6,0.4-1,0.4c-0.4,0-0.7-0.1-1-0.4c-0.3-0.3-0.4-0.6-0.4-1
			c0-0.4,0.1-0.7,0.4-1C234.2,72.1,234.5,71.9,234.9,71.9z"/>
		<path id="XMLID_2722_" class="st0" d="M234.9,74.8c-0.4,0-0.8-0.1-1-0.4c-0.3-0.3-0.4-0.6-0.4-1c0-0.4,0.1-0.7,0.4-1
			c0.3-0.3,0.6-0.4,1-0.4c0.4,0,0.7,0.1,1,0.4c0.3,0.3,0.4,0.6,0.4,1c0,0.4-0.1,0.7-0.4,1C235.6,74.6,235.3,74.8,234.9,74.8z
			 M234.9,72c-0.4,0-0.7,0.1-0.9,0.4c-0.3,0.3-0.4,0.5-0.4,0.9c0,0.4,0.1,0.6,0.4,0.9c0.2,0.3,0.6,0.4,0.9,0.4
			c0.4,0,0.7-0.1,0.9-0.4c0.3-0.3,0.4-0.5,0.4-0.9c0-0.4-0.1-0.6-0.4-0.9C235.5,72.2,235.2,72,234.9,72z M236.1,70.3h-1.7l0-0.1
			l1.7-12.8h1.7L236.1,70.3z M234.5,70.2h1.4l1.7-12.6h-1.4L234.5,70.2z"/>
	</g>
</g>
</svg>
